<svg width="600" height="451" viewBox="0 0 600 451" fill="none" xmlns="http://www.w3.org/2000/svg">
<rect width="600" height="451" fill="#FEC563"/>
<rect x="10" y="7" width="580" height="437" rx="25" fill="#1E1E1F"/>
<path d="M193.84 234.4C189.52 234.4 186.213 233.24 183.92 230.92C181.627 228.573 180.48 225.387 180.48 221.36C180.48 217.093 181.587 213.773 183.8 211.4C186.04 209.027 189.373 207.84 193.8 207.84C195.347 207.84 196.733 207.96 197.96 208.2C199.213 208.413 200.387 208.72 201.48 209.12V213.84C199.213 212.907 196.787 212.44 194.2 212.44C191.267 212.44 189.16 213.173 187.88 214.64C186.6 216.107 185.96 218.347 185.96 221.36C185.96 227.013 188.733 229.84 194.28 229.84C195.533 229.84 196.773 229.733 198 229.52C199.227 229.28 200.4 228.933 201.52 228.48V233.24C200.427 233.587 199.253 233.867 198 234.08C196.773 234.293 195.387 234.4 193.84 234.4ZM214.744 234.4C211.198 234.4 208.598 233.547 206.944 231.84C205.291 230.107 204.464 227.667 204.464 224.52C204.464 221.373 205.291 218.947 206.944 217.24C208.624 215.507 211.224 214.64 214.744 214.64C218.291 214.64 220.891 215.507 222.544 217.24C224.224 218.947 225.064 221.373 225.064 224.52C225.064 227.667 224.238 230.107 222.584 231.84C220.931 233.547 218.318 234.4 214.744 234.4ZM214.744 229.8C216.478 229.8 217.718 229.413 218.464 228.64C219.211 227.84 219.584 226.467 219.584 224.52C219.584 222.573 219.211 221.213 218.464 220.44C217.718 219.64 216.478 219.24 214.744 219.24C213.038 219.24 211.811 219.64 211.064 220.44C210.318 221.213 209.944 222.573 209.944 224.52C209.944 226.467 210.318 227.84 211.064 228.64C211.811 229.413 213.038 229.8 214.744 229.8ZM228.819 234V215.04H233.819L234.019 216.88C234.926 216.187 235.912 215.64 236.979 215.24C238.072 214.84 239.246 214.64 240.499 214.64C241.832 214.64 242.859 214.84 243.579 215.24C244.326 215.64 244.899 216.213 245.299 216.96C246.179 216.267 247.179 215.707 248.299 215.28C249.446 214.853 250.792 214.64 252.339 214.64C254.526 214.64 256.139 215.213 257.179 216.36C258.219 217.48 258.739 219.2 258.739 221.52V234H253.419V222.12C253.419 220.867 253.152 219.973 252.619 219.44C252.086 218.88 251.232 218.6 250.059 218.6C248.459 218.6 247.126 219.173 246.059 220.32C246.192 220.773 246.259 221.32 246.259 221.96V234H241.219V222.12C241.219 220.947 241.019 220.067 240.619 219.48C240.219 218.893 239.446 218.6 238.299 218.6C237.499 218.6 236.739 218.813 236.019 219.24C235.326 219.64 234.699 220.107 234.139 220.64V234H228.819ZM264.475 211.56V207.32H270.355V211.56H264.475ZM264.915 234V219.04H262.075L262.555 215.04H270.315V234H264.915ZM274.913 234V215.04H279.913L280.113 216.84C280.886 216.253 281.859 215.747 283.033 215.32C284.233 214.867 285.486 214.64 286.793 214.64C289.299 214.64 291.126 215.227 292.273 216.4C293.419 217.573 293.993 219.387 293.993 221.84V234H288.593V222.12C288.593 220.84 288.326 219.933 287.793 219.4C287.286 218.867 286.326 218.6 284.913 218.6C284.086 218.6 283.246 218.787 282.393 219.16C281.566 219.533 280.873 220 280.313 220.56V234H274.913ZM306.389 241.04C304.976 241.04 303.523 240.947 302.029 240.76C300.563 240.573 299.323 240.307 298.309 239.96V235.92C299.376 236.267 300.629 236.533 302.069 236.72C303.509 236.933 304.856 237.04 306.109 237.04C307.949 237.04 309.283 236.933 310.109 236.72C310.936 236.533 311.349 236.187 311.349 235.68C311.349 235.253 311.163 234.96 310.789 234.8C310.443 234.64 309.696 234.56 308.549 234.56H303.389C300.003 234.56 298.309 233.307 298.309 230.8C298.309 230.027 298.523 229.32 298.949 228.68C299.376 228.04 300.056 227.533 300.989 227.16C298.829 226.067 297.749 224.227 297.749 221.64C297.749 219.187 298.509 217.413 300.029 216.32C301.549 215.2 303.803 214.64 306.789 214.64C307.403 214.64 308.069 214.693 308.789 214.8C309.536 214.88 310.096 214.96 310.469 215.04H317.589L317.469 218.44H314.469C315.296 219.213 315.709 220.293 315.709 221.68C315.709 223.627 315.096 225.187 313.869 226.36C312.643 227.507 310.829 228.08 308.429 228.08C308.003 228.08 307.589 228.067 307.189 228.04C306.816 227.987 306.429 227.933 306.029 227.88C305.229 227.987 304.549 228.173 303.989 228.44C303.456 228.707 303.189 229.067 303.189 229.52C303.189 230.133 303.736 230.44 304.829 230.44H310.189C312.109 230.44 313.589 230.88 314.629 231.76C315.669 232.613 316.189 233.867 316.189 235.52C316.189 237.387 315.349 238.773 313.669 239.68C311.989 240.587 309.563 241.04 306.389 241.04ZM306.829 225.04C308.429 225.04 309.536 224.773 310.149 224.24C310.789 223.68 311.109 222.747 311.109 221.44C311.109 220.133 310.789 219.187 310.149 218.6C309.536 218.013 308.429 217.72 306.829 217.72C305.309 217.72 304.216 218.013 303.549 218.6C302.883 219.16 302.549 220.107 302.549 221.44C302.549 222.667 302.856 223.573 303.469 224.16C304.109 224.747 305.229 225.04 306.829 225.04ZM337.639 234.4C335.986 234.4 334.439 234.28 332.999 234.04C331.586 233.8 330.359 233.453 329.319 233V228.24C330.493 228.72 331.759 229.107 333.119 229.4C334.479 229.693 335.813 229.84 337.119 229.84C338.986 229.84 340.359 229.667 341.239 229.32C342.119 228.973 342.559 228.187 342.559 226.96C342.559 226.187 342.373 225.573 341.999 225.12C341.626 224.667 340.973 224.267 340.039 223.92C339.133 223.547 337.839 223.133 336.159 222.68C333.466 221.933 331.573 221 330.479 219.88C329.386 218.76 328.839 217.213 328.839 215.24C328.839 212.867 329.706 211.04 331.439 209.76C333.173 208.48 335.693 207.84 338.999 207.84C340.546 207.84 341.986 207.947 343.319 208.16C344.653 208.373 345.733 208.627 346.559 208.92V213.68C344.373 212.853 342.093 212.44 339.719 212.44C338.039 212.44 336.719 212.627 335.759 213C334.799 213.347 334.319 214.093 334.319 215.24C334.319 215.907 334.493 216.44 334.839 216.84C335.186 217.24 335.773 217.6 336.599 217.92C337.453 218.24 338.639 218.6 340.159 219C342.266 219.56 343.893 220.227 345.039 221C346.186 221.773 346.973 222.653 347.399 223.64C347.853 224.627 348.079 225.733 348.079 226.96C348.079 229.2 347.226 231 345.519 232.36C343.813 233.72 341.186 234.4 337.639 234.4ZM361.307 234.4C357.76 234.4 355.16 233.547 353.507 231.84C351.854 230.107 351.027 227.667 351.027 224.52C351.027 221.373 351.854 218.947 353.507 217.24C355.187 215.507 357.787 214.64 361.307 214.64C364.854 214.64 367.454 215.507 369.107 217.24C370.787 218.947 371.627 221.373 371.627 224.52C371.627 227.667 370.8 230.107 369.147 231.84C367.494 233.547 364.88 234.4 361.307 234.4ZM361.307 229.8C363.04 229.8 364.28 229.413 365.027 228.64C365.774 227.84 366.147 226.467 366.147 224.52C366.147 222.573 365.774 221.213 365.027 220.44C364.28 219.64 363.04 219.24 361.307 219.24C359.6 219.24 358.374 219.64 357.627 220.44C356.88 221.213 356.507 222.573 356.507 224.52C356.507 226.467 356.88 227.84 357.627 228.64C358.374 229.413 359.6 229.8 361.307 229.8ZM384.862 234.4C381.315 234.4 378.715 233.547 377.062 231.84C375.408 230.107 374.582 227.667 374.582 224.52C374.582 221.373 375.408 218.947 377.062 217.24C378.742 215.507 381.342 214.64 384.862 214.64C388.408 214.64 391.008 215.507 392.662 217.24C394.342 218.947 395.182 221.373 395.182 224.52C395.182 227.667 394.355 230.107 392.702 231.84C391.048 233.547 388.435 234.4 384.862 234.4ZM384.862 229.8C386.595 229.8 387.835 229.413 388.582 228.64C389.328 227.84 389.702 226.467 389.702 224.52C389.702 222.573 389.328 221.213 388.582 220.44C387.835 219.64 386.595 219.24 384.862 219.24C383.155 219.24 381.928 219.64 381.182 220.44C380.435 221.213 380.062 222.573 380.062 224.52C380.062 226.467 380.435 227.84 381.182 228.64C381.928 229.413 383.155 229.8 384.862 229.8ZM398.936 234V215.04H403.936L404.136 216.84C404.91 216.253 405.883 215.747 407.056 215.32C408.256 214.867 409.51 214.64 410.816 214.64C413.323 214.64 415.15 215.227 416.296 216.4C417.443 217.573 418.016 219.387 418.016 221.84V234H412.616V222.12C412.616 220.84 412.35 219.933 411.816 219.4C411.31 218.867 410.35 218.6 408.936 218.6C408.11 218.6 407.27 218.787 406.416 219.16C405.59 219.533 404.896 220 404.336 220.56V234H398.936Z" fill="white"/>
</svg>
